<mxfile host="app.diagrams.net" agent="Mozilla/5.0 (X11; Ubuntu; Linux x86_64; rv:141.0) Gecko/20100101 Firefox/141.0" version="28.0.4">
  <diagram name="Page-1" id="qgKWTRnhQgjnjcgVLp99">
    <mxGraphModel dx="872" dy="459" grid="1" gridSize="10" guides="1" tooltips="1" connect="1" arrows="1" fold="1" page="1" pageScale="1" pageWidth="595" pageHeight="842" math="1" shadow="0">
      <root>
        <mxCell id="0" />
        <mxCell id="1" parent="0" />
        <mxCell id="4T01Y7rvJt7G6xIn6hby-2" style="edgeStyle=orthogonalEdgeStyle;rounded=0;orthogonalLoop=1;jettySize=auto;html=1;strokeWidth=2;endArrow=block;endFill=1;endSize=1;entryX=0.75;entryY=1;entryDx=0;entryDy=0;" edge="1" parent="1" source="4T01Y7rvJt7G6xIn6hby-57" target="4T01Y7rvJt7G6xIn6hby-214">
          <mxGeometry relative="1" as="geometry">
            <mxPoint x="-35" y="259.5" as="targetPoint" />
            <Array as="points">
              <mxPoint x="528" y="670" />
              <mxPoint x="35" y="670" />
              <mxPoint x="35" y="97" />
              <mxPoint x="51" y="97" />
            </Array>
          </mxGeometry>
        </mxCell>
        <mxCell id="4T01Y7rvJt7G6xIn6hby-6" value="" style="rounded=0;whiteSpace=wrap;html=1;" vertex="1" parent="1">
          <mxGeometry x="314.5" y="396.96000000000004" width="111.5" height="217.54" as="geometry" />
        </mxCell>
        <mxCell id="4T01Y7rvJt7G6xIn6hby-7" value="" style="rounded=0;whiteSpace=wrap;html=1;" vertex="1" parent="1">
          <mxGeometry x="311.5" y="399.96000000000004" width="111.5" height="217.54" as="geometry" />
        </mxCell>
        <mxCell id="4T01Y7rvJt7G6xIn6hby-8" value="" style="rounded=0;whiteSpace=wrap;html=1;" vertex="1" parent="1">
          <mxGeometry x="308.5" y="402.96000000000004" width="111.5" height="217.54" as="geometry" />
        </mxCell>
        <mxCell id="4T01Y7rvJt7G6xIn6hby-9" value="" style="rounded=0;whiteSpace=wrap;html=1;" vertex="1" parent="1">
          <mxGeometry x="305.5" y="405.96000000000004" width="111.5" height="217.54" as="geometry" />
        </mxCell>
        <mxCell id="4T01Y7rvJt7G6xIn6hby-10" value="" style="rounded=0;whiteSpace=wrap;html=1;" vertex="1" parent="1">
          <mxGeometry x="302.5" y="408.96000000000004" width="111.5" height="217.54" as="geometry" />
        </mxCell>
        <mxCell id="4T01Y7rvJt7G6xIn6hby-11" value="" style="rounded=0;whiteSpace=wrap;html=1;" vertex="1" parent="1">
          <mxGeometry x="299.5" y="411.96000000000004" width="111.5" height="217.54" as="geometry" />
        </mxCell>
        <mxCell id="4T01Y7rvJt7G6xIn6hby-12" value="" style="rounded=0;whiteSpace=wrap;html=1;" vertex="1" parent="1">
          <mxGeometry x="296.5" y="414.96000000000004" width="111.5" height="217.54" as="geometry" />
        </mxCell>
        <mxCell id="4T01Y7rvJt7G6xIn6hby-13" value="" style="rounded=0;whiteSpace=wrap;html=1;" vertex="1" parent="1">
          <mxGeometry x="172.83999999999997" y="397.96000000000004" width="99.71" height="216.54" as="geometry" />
        </mxCell>
        <mxCell id="4T01Y7rvJt7G6xIn6hby-14" value="" style="rounded=0;whiteSpace=wrap;html=1;" vertex="1" parent="1">
          <mxGeometry x="169.83999999999997" y="400.96000000000004" width="99.71" height="216.54" as="geometry" />
        </mxCell>
        <mxCell id="4T01Y7rvJt7G6xIn6hby-15" value="" style="endArrow=block;html=1;rounded=0;endFill=1;strokeWidth=2;exitX=1.004;exitY=0.568;exitDx=0;exitDy=0;exitPerimeter=0;entryX=0;entryY=0.5;entryDx=0;entryDy=0;startFill=0;endSize=1;" edge="1" parent="1" source="4T01Y7rvJt7G6xIn6hby-16" target="4T01Y7rvJt7G6xIn6hby-40">
          <mxGeometry width="50" height="50" relative="1" as="geometry">
            <mxPoint x="267.61028999999985" y="526.8100000000002" as="sourcePoint" />
            <mxPoint x="376.4614999999999" y="527.5599999999997" as="targetPoint" />
          </mxGeometry>
        </mxCell>
        <mxCell id="4T01Y7rvJt7G6xIn6hby-16" value="" style="rounded=0;whiteSpace=wrap;html=1;" vertex="1" parent="1">
          <mxGeometry x="167.33999999999997" y="403.96000000000004" width="99.71" height="216.54" as="geometry" />
        </mxCell>
        <mxCell id="4T01Y7rvJt7G6xIn6hby-17" value="" style="rounded=0;whiteSpace=wrap;html=1;" vertex="1" parent="1">
          <mxGeometry x="164.33999999999997" y="406.96000000000004" width="99.71" height="216.54" as="geometry" />
        </mxCell>
        <mxCell id="4T01Y7rvJt7G6xIn6hby-18" value="" style="rounded=0;whiteSpace=wrap;html=1;" vertex="1" parent="1">
          <mxGeometry x="161.33999999999997" y="409.96000000000004" width="99.71" height="216.54" as="geometry" />
        </mxCell>
        <mxCell id="4T01Y7rvJt7G6xIn6hby-19" value="" style="rounded=0;whiteSpace=wrap;html=1;" vertex="1" parent="1">
          <mxGeometry x="158.33999999999997" y="412.96000000000004" width="99.71" height="216.54" as="geometry" />
        </mxCell>
        <mxCell id="4T01Y7rvJt7G6xIn6hby-20" value="" style="rounded=0;whiteSpace=wrap;html=1;" vertex="1" parent="1">
          <mxGeometry x="155.33999999999997" y="415.96000000000004" width="99.71" height="216.54" as="geometry" />
        </mxCell>
        <mxCell id="4T01Y7rvJt7G6xIn6hby-21" value="" style="endArrow=block;html=1;rounded=0;exitX=0.713;exitY=1.004;exitDx=0;exitDy=0;exitPerimeter=0;entryX=-0.002;entryY=0.45;entryDx=0;entryDy=0;entryPerimeter=0;endSize=1;endFill=1;strokeWidth=2;" edge="1" parent="1" source="4T01Y7rvJt7G6xIn6hby-58">
          <mxGeometry width="50" height="50" relative="1" as="geometry">
            <mxPoint x="124.99999999999994" y="557.5" as="sourcePoint" />
            <mxPoint x="152.14057999999994" y="507.403" as="targetPoint" />
          </mxGeometry>
        </mxCell>
        <mxCell id="4T01Y7rvJt7G6xIn6hby-22" value="" style="endArrow=block;html=1;rounded=0;exitX=0.764;exitY=1.013;exitDx=0;exitDy=0;exitPerimeter=0;entryX=-0.005;entryY=0.335;entryDx=0;entryDy=0;entryPerimeter=0;endSize=1;endFill=1;strokeWidth=2;" edge="1" parent="1">
          <mxGeometry width="50" height="50" relative="1" as="geometry">
            <mxPoint x="116.99999999999994" y="517.5" as="sourcePoint" />
            <mxPoint x="151.99999999999994" y="517.5" as="targetPoint" />
          </mxGeometry>
        </mxCell>
        <mxCell id="4T01Y7rvJt7G6xIn6hby-23" value="" style="endArrow=block;html=1;rounded=0;exitX=0.764;exitY=1.013;exitDx=0;exitDy=0;exitPerimeter=0;entryX=-0.005;entryY=0.335;entryDx=0;entryDy=0;entryPerimeter=0;endSize=1;endFill=1;strokeWidth=2;" edge="1" parent="1">
          <mxGeometry width="50" height="50" relative="1" as="geometry">
            <mxPoint x="116.99999999999994" y="527.5" as="sourcePoint" />
            <mxPoint x="151.99999999999994" y="527.5" as="targetPoint" />
          </mxGeometry>
        </mxCell>
        <mxCell id="4T01Y7rvJt7G6xIn6hby-24" value="" style="endArrow=block;html=1;rounded=0;exitX=0.764;exitY=1.013;exitDx=0;exitDy=0;exitPerimeter=0;entryX=-0.005;entryY=0.335;entryDx=0;entryDy=0;entryPerimeter=0;endSize=1;endFill=1;strokeWidth=2;" edge="1" parent="1">
          <mxGeometry width="50" height="50" relative="1" as="geometry">
            <mxPoint x="116.99999999999994" y="537.5" as="sourcePoint" />
            <mxPoint x="151.99999999999994" y="537.5" as="targetPoint" />
          </mxGeometry>
        </mxCell>
        <mxCell id="4T01Y7rvJt7G6xIn6hby-25" value="" style="endArrow=block;html=1;rounded=0;exitX=0.764;exitY=1.013;exitDx=0;exitDy=0;exitPerimeter=0;entryX=-0.005;entryY=0.335;entryDx=0;entryDy=0;entryPerimeter=0;endSize=1;endFill=1;strokeWidth=2;" edge="1" parent="1">
          <mxGeometry width="50" height="50" relative="1" as="geometry">
            <mxPoint x="116.99999999999994" y="547.5" as="sourcePoint" />
            <mxPoint x="151.99999999999994" y="547.5" as="targetPoint" />
          </mxGeometry>
        </mxCell>
        <mxCell id="4T01Y7rvJt7G6xIn6hby-26" value="" style="endArrow=block;html=1;rounded=0;exitX=0.764;exitY=1.013;exitDx=0;exitDy=0;exitPerimeter=0;entryX=-0.005;entryY=0.335;entryDx=0;entryDy=0;entryPerimeter=0;endSize=1;endFill=1;strokeWidth=2;" edge="1" parent="1">
          <mxGeometry width="50" height="50" relative="1" as="geometry">
            <mxPoint x="116.99999999999994" y="557.5" as="sourcePoint" />
            <mxPoint x="151.99999999999994" y="557.5" as="targetPoint" />
          </mxGeometry>
        </mxCell>
        <mxCell id="4T01Y7rvJt7G6xIn6hby-27" value="" style="endArrow=block;html=1;rounded=0;exitX=0.764;exitY=1.013;exitDx=0;exitDy=0;exitPerimeter=0;entryX=-0.005;entryY=0.335;entryDx=0;entryDy=0;entryPerimeter=0;endSize=1;endFill=1;strokeWidth=2;" edge="1" parent="1">
          <mxGeometry width="50" height="50" relative="1" as="geometry">
            <mxPoint x="116.99999999999994" y="567.5" as="sourcePoint" />
            <mxPoint x="151.99999999999994" y="567.5" as="targetPoint" />
          </mxGeometry>
        </mxCell>
        <mxCell id="4T01Y7rvJt7G6xIn6hby-28" value="" style="endArrow=block;html=1;rounded=0;exitX=0.764;exitY=1.013;exitDx=0;exitDy=0;exitPerimeter=0;entryX=-0.005;entryY=0.335;entryDx=0;entryDy=0;entryPerimeter=0;endSize=1;endFill=1;strokeWidth=2;" edge="1" parent="1">
          <mxGeometry width="50" height="50" relative="1" as="geometry">
            <mxPoint x="116.99999999999994" y="577.5" as="sourcePoint" />
            <mxPoint x="151.99999999999994" y="577.5" as="targetPoint" />
          </mxGeometry>
        </mxCell>
        <mxCell id="4T01Y7rvJt7G6xIn6hby-29" value="" style="rounded=0;whiteSpace=wrap;html=1;" vertex="1" parent="1">
          <mxGeometry x="152.33999999999997" y="418.96000000000004" width="99.71" height="216.54" as="geometry" />
        </mxCell>
        <mxCell id="4T01Y7rvJt7G6xIn6hby-30" value="" style="rounded=1;whiteSpace=wrap;html=1;" vertex="1" parent="1">
          <mxGeometry x="161.47999999999996" y="538.96" width="81.42" height="20" as="geometry" />
        </mxCell>
        <mxCell id="4T01Y7rvJt7G6xIn6hby-31" value="" style="rounded=1;whiteSpace=wrap;html=1;" vertex="1" parent="1">
          <mxGeometry x="161.47999999999996" y="518.96" width="81.42" height="20" as="geometry" />
        </mxCell>
        <mxCell id="4T01Y7rvJt7G6xIn6hby-32" value="" style="rounded=1;whiteSpace=wrap;html=1;" vertex="1" parent="1">
          <mxGeometry x="161.47999999999996" y="498.96000000000004" width="81.42" height="20" as="geometry" />
        </mxCell>
        <mxCell id="4T01Y7rvJt7G6xIn6hby-33" value="" style="rounded=1;whiteSpace=wrap;html=1;" vertex="1" parent="1">
          <mxGeometry x="161.47999999999996" y="478.96000000000004" width="81.42" height="20" as="geometry" />
        </mxCell>
        <mxCell id="4T01Y7rvJt7G6xIn6hby-34" value="" style="rounded=1;whiteSpace=wrap;html=1;" vertex="1" parent="1">
          <mxGeometry x="161.47999999999996" y="458.96000000000004" width="81.42" height="20" as="geometry" />
        </mxCell>
        <mxCell id="4T01Y7rvJt7G6xIn6hby-35" value="" style="rounded=1;whiteSpace=wrap;html=1;" vertex="1" parent="1">
          <mxGeometry x="161.47999999999996" y="438.96000000000004" width="81.42" height="20" as="geometry" />
        </mxCell>
        <mxCell id="4T01Y7rvJt7G6xIn6hby-36" value="" style="endArrow=none;dashed=1;html=1;dashPattern=1 3;strokeWidth=2;rounded=0;" edge="1" parent="1">
          <mxGeometry width="50" height="50" relative="1" as="geometry">
            <mxPoint x="201.76999999999992" y="565.5699999999999" as="sourcePoint" />
            <mxPoint x="201.76999999999992" y="585.5699999999999" as="targetPoint" />
          </mxGeometry>
        </mxCell>
        <mxCell id="4T01Y7rvJt7G6xIn6hby-37" value="" style="rounded=1;whiteSpace=wrap;html=1;" vertex="1" parent="1">
          <mxGeometry x="161.47999999999996" y="591.73" width="81.42" height="20" as="geometry" />
        </mxCell>
        <mxCell id="4T01Y7rvJt7G6xIn6hby-38" value="&lt;font style=&quot;font-size: 8px;&quot;&gt;$$\text{en}$$&lt;/font&gt;" style="text;html=1;align=center;verticalAlign=middle;whiteSpace=wrap;rounded=0;" vertex="1" parent="1">
          <mxGeometry x="163.32" y="425.19000000000005" width="10.52" height="7.54" as="geometry" />
        </mxCell>
        <mxCell id="4T01Y7rvJt7G6xIn6hby-39" value="&lt;font style=&quot;font-size: 8px;&quot;&gt;$$\text{cs}$$&lt;/font&gt;" style="text;html=1;align=center;verticalAlign=middle;whiteSpace=wrap;rounded=0;" vertex="1" parent="1">
          <mxGeometry x="231.49999999999994" y="425.19000000000005" width="9.1" height="7.54" as="geometry" />
        </mxCell>
        <mxCell id="4T01Y7rvJt7G6xIn6hby-40" value="" style="rounded=0;whiteSpace=wrap;html=1;" vertex="1" parent="1">
          <mxGeometry x="293.5" y="417.96000000000004" width="111.5" height="217.54" as="geometry" />
        </mxCell>
        <mxCell id="4T01Y7rvJt7G6xIn6hby-41" value="&lt;font style=&quot;font-size: 8px;&quot;&gt;$$\text{start}$$&lt;/font&gt;" style="text;html=1;align=center;verticalAlign=middle;whiteSpace=wrap;rounded=0;" vertex="1" parent="1">
          <mxGeometry x="302" y="418.96000000000004" width="30" height="20" as="geometry" />
        </mxCell>
        <mxCell id="4T01Y7rvJt7G6xIn6hby-42" value="" style="shape=trapezoid;perimeter=trapezoidPerimeter;whiteSpace=wrap;html=1;fixedSize=1;rotation=-90;fillColor=#FFFFFF;strokeWidth=1;" vertex="1" parent="1">
          <mxGeometry x="393.79999999999995" y="528.1300000000001" width="131.22" height="28.44" as="geometry" />
        </mxCell>
        <mxCell id="4T01Y7rvJt7G6xIn6hby-43" value="" style="endArrow=block;html=1;rounded=0;endFill=1;strokeWidth=2;exitX=0.997;exitY=0.072;exitDx=0;exitDy=0;exitPerimeter=0;entryX=0.44;entryY=-0.018;entryDx=0;entryDy=0;entryPerimeter=0;endSize=1;" edge="1" parent="1">
          <mxGeometry width="50" height="50" relative="1" as="geometry">
            <mxPoint x="405.0044999999998" y="578.1499999999996" as="sourcePoint" />
            <mxPoint x="444.6880799999999" y="578.1272000000004" as="targetPoint" />
          </mxGeometry>
        </mxCell>
        <mxCell id="4T01Y7rvJt7G6xIn6hby-44" value="" style="endArrow=block;html=1;rounded=0;endFill=1;strokeWidth=2;exitX=0.997;exitY=0.072;exitDx=0;exitDy=0;exitPerimeter=0;entryX=0.471;entryY=-0.019;entryDx=0;entryDy=0;entryPerimeter=0;endSize=1;" edge="1" parent="1">
          <mxGeometry width="50" height="50" relative="1" as="geometry">
            <mxPoint x="408.0044999999998" y="568.1299999999997" as="sourcePoint" />
            <mxPoint x="444.6596400000001" y="568.1804800000004" as="targetPoint" />
          </mxGeometry>
        </mxCell>
        <mxCell id="4T01Y7rvJt7G6xIn6hby-45" value="" style="endArrow=block;html=1;rounded=0;endFill=1;strokeWidth=2;exitX=1.001;exitY=0.483;exitDx=0;exitDy=0;exitPerimeter=0;entryX=0.471;entryY=-0.019;entryDx=0;entryDy=0;entryPerimeter=0;endSize=1;" edge="1" parent="1">
          <mxGeometry width="50" height="50" relative="1" as="geometry">
            <mxPoint x="411.1385" y="558.0300000000002" as="sourcePoint" />
            <mxPoint x="444.6596400000001" y="557.9504800000004" as="targetPoint" />
          </mxGeometry>
        </mxCell>
        <mxCell id="4T01Y7rvJt7G6xIn6hby-46" value="" style="endArrow=block;html=1;rounded=0;endFill=1;strokeWidth=2;exitX=1.001;exitY=0.447;exitDx=0;exitDy=0;exitPerimeter=0;entryX=0.471;entryY=-0.019;entryDx=0;entryDy=0;entryPerimeter=0;endSize=1;" edge="1" parent="1">
          <mxGeometry width="50" height="50" relative="1" as="geometry">
            <mxPoint x="414.6385" y="547.5900000000001" as="sourcePoint" />
            <mxPoint x="444.51964" y="547.7204800000004" as="targetPoint" />
          </mxGeometry>
        </mxCell>
        <mxCell id="4T01Y7rvJt7G6xIn6hby-47" value="" style="endArrow=block;html=1;rounded=0;endFill=1;strokeWidth=2;exitX=1.001;exitY=0.447;exitDx=0;exitDy=0;exitPerimeter=0;entryX=0.578;entryY=-0.018;entryDx=0;entryDy=0;entryPerimeter=0;endSize=1;" edge="1" parent="1">
          <mxGeometry width="50" height="50" relative="1" as="geometry">
            <mxPoint x="417.5" y="537.23" as="sourcePoint" />
            <mxPoint x="444.6880799999999" y="537.3966400000004" as="targetPoint" />
          </mxGeometry>
        </mxCell>
        <mxCell id="4T01Y7rvJt7G6xIn6hby-48" value="" style="endArrow=block;html=1;rounded=0;endFill=1;strokeWidth=2;exitX=1.001;exitY=0.616;exitDx=0;exitDy=0;exitPerimeter=0;entryX=0.61;entryY=-0.016;entryDx=0;entryDy=0;entryPerimeter=0;endSize=1;" edge="1" parent="1">
          <mxGeometry width="50" height="50" relative="1" as="geometry">
            <mxPoint x="420.1385" y="527.9646399999999" as="sourcePoint" />
            <mxPoint x="444.74496" y="528.0968000000003" as="targetPoint" />
          </mxGeometry>
        </mxCell>
        <mxCell id="4T01Y7rvJt7G6xIn6hby-49" value="" style="endArrow=block;html=1;rounded=0;endFill=1;strokeWidth=2;exitX=1.001;exitY=0.586;exitDx=0;exitDy=0;exitPerimeter=0;entryX=0.648;entryY=-0.017;entryDx=0;entryDy=0;entryPerimeter=0;endSize=1;" edge="1" parent="1">
          <mxGeometry width="50" height="50" relative="1" as="geometry">
            <mxPoint x="423.1385" y="518.4384400000001" as="sourcePoint" />
            <mxPoint x="444.71651999999995" y="518.6782400000002" as="targetPoint" />
          </mxGeometry>
        </mxCell>
        <mxCell id="4T01Y7rvJt7G6xIn6hby-50" value="" style="endArrow=block;html=1;rounded=0;endFill=1;strokeWidth=2;exitX=1.002;exitY=0.556;exitDx=0;exitDy=0;exitPerimeter=0;entryX=0.684;entryY=-0.017;entryDx=0;entryDy=0;entryPerimeter=0;endSize=1;" edge="1" parent="1">
          <mxGeometry width="50" height="50" relative="1" as="geometry">
            <mxPoint x="426.27700000000004" y="508.9122400000001" as="sourcePoint" />
            <mxPoint x="444.71651999999995" y="508.9659200000001" as="targetPoint" />
          </mxGeometry>
        </mxCell>
        <mxCell id="4T01Y7rvJt7G6xIn6hby-51" value="" style="endArrow=block;html=1;rounded=0;endFill=1;strokeWidth=2;exitX=1.004;exitY=0.727;exitDx=0;exitDy=0;exitPerimeter=0;entryX=-0.002;entryY=0.729;entryDx=0;entryDy=0;entryPerimeter=0;startFill=0;endSize=1;" edge="1" parent="1" source="4T01Y7rvJt7G6xIn6hby-29" target="4T01Y7rvJt7G6xIn6hby-40">
          <mxGeometry width="50" height="50" relative="1" as="geometry">
            <mxPoint x="252.54854999999992" y="576.31" as="sourcePoint" />
            <mxPoint x="376.4694999999999" y="576.8499999999999" as="targetPoint" />
          </mxGeometry>
        </mxCell>
        <mxCell id="4T01Y7rvJt7G6xIn6hby-52" value="" style="endArrow=block;html=1;rounded=0;endFill=1;strokeWidth=2;exitX=1.001;exitY=0.701;exitDx=0;exitDy=0;exitPerimeter=0;startFill=0;endSize=1;entryX=-0.003;entryY=0.688;entryDx=0;entryDy=0;entryPerimeter=0;" edge="1" parent="1" source="4T01Y7rvJt7G6xIn6hby-20" target="4T01Y7rvJt7G6xIn6hby-40">
          <mxGeometry width="50" height="50" relative="1" as="geometry">
            <mxPoint x="255.68855000000002" y="567.6547" as="sourcePoint" />
            <mxPoint x="295" y="567.5" as="targetPoint" />
          </mxGeometry>
        </mxCell>
        <mxCell id="4T01Y7rvJt7G6xIn6hby-53" value="" style="endArrow=block;html=1;rounded=0;endFill=1;strokeWidth=2;exitX=1.004;exitY=0.667;exitDx=0;exitDy=0;exitPerimeter=0;entryX=-0.005;entryY=0.642;entryDx=0;entryDy=0;entryPerimeter=0;startFill=0;endSize=1;" edge="1" parent="1" source="4T01Y7rvJt7G6xIn6hby-19" target="4T01Y7rvJt7G6xIn6hby-40">
          <mxGeometry width="50" height="50" relative="1" as="geometry">
            <mxPoint x="258.7097099999999" y="557.3300000000004" as="sourcePoint" />
            <mxPoint x="376.5" y="557.69" as="targetPoint" />
          </mxGeometry>
        </mxCell>
        <mxCell id="4T01Y7rvJt7G6xIn6hby-54" value="" style="endArrow=block;html=1;rounded=0;endFill=1;strokeWidth=2;exitX=1.003;exitY=0.676;exitDx=0;exitDy=0;exitPerimeter=0;entryX=-0.004;entryY=0.596;entryDx=0;entryDy=0;entryPerimeter=0;startFill=0;endSize=1;" edge="1" parent="1" target="4T01Y7rvJt7G6xIn6hby-40">
          <mxGeometry width="50" height="50" relative="1" as="geometry">
            <mxPoint x="261.34913" y="547.3410400000002" as="sourcePoint" />
            <mxPoint x="376.5" y="547.8899999999999" as="targetPoint" />
          </mxGeometry>
        </mxCell>
        <mxCell id="4T01Y7rvJt7G6xIn6hby-55" value="" style="endArrow=block;html=1;rounded=0;endFill=1;strokeWidth=2;exitX=1.024;exitY=0.564;exitDx=0;exitDy=0;exitPerimeter=0;entryX=-0.003;entryY=0.456;entryDx=0;entryDy=0;entryPerimeter=0;startFill=0;startSize=6;endSize=1;" edge="1" parent="1" target="4T01Y7rvJt7G6xIn6hby-40">
          <mxGeometry width="50" height="50" relative="1" as="geometry">
            <mxPoint x="269.4430400000001" y="517.0885600000001" as="sourcePoint" />
            <mxPoint x="376.3615" y="517.48" as="targetPoint" />
          </mxGeometry>
        </mxCell>
        <mxCell id="4T01Y7rvJt7G6xIn6hby-56" value="" style="endArrow=block;html=1;rounded=0;endFill=1;strokeWidth=2;exitX=1.004;exitY=0.55;exitDx=0;exitDy=0;exitPerimeter=0;entryX=-0.002;entryY=0.415;entryDx=0;entryDy=0;entryPerimeter=0;startFill=0;endSize=1;" edge="1" parent="1" target="4T01Y7rvJt7G6xIn6hby-40">
          <mxGeometry width="50" height="50" relative="1" as="geometry">
            <mxPoint x="272.94884" y="508.057" as="sourcePoint" />
            <mxPoint x="376.5" y="507.1399999999999" as="targetPoint" />
          </mxGeometry>
        </mxCell>
        <mxCell id="4T01Y7rvJt7G6xIn6hby-57" value="&lt;h5&gt;&lt;font face=&quot;Helvetica&quot; style=&quot;font-size: 8px;&quot;&gt;$$\text{Cmp}$$&lt;/font&gt;&lt;/h5&gt;" style="rounded=0;whiteSpace=wrap;html=1;rotation=0;" vertex="1" parent="1">
          <mxGeometry x="497" y="476.96000000000004" width="61" height="130" as="geometry" />
        </mxCell>
        <mxCell id="4T01Y7rvJt7G6xIn6hby-58" value="" style="shape=trapezoid;perimeter=trapezoidPerimeter;whiteSpace=wrap;html=1;fixedSize=1;rotation=-90;fillColor=#FFFFFF;strokeWidth=1;" vertex="1" parent="1">
          <mxGeometry x="50.999999999999886" y="520.74" width="131.22" height="28.44" as="geometry" />
        </mxCell>
        <mxCell id="4T01Y7rvJt7G6xIn6hby-59" value="" style="endArrow=block;html=1;rounded=0;exitX=0.5;exitY=1;exitDx=0;exitDy=0;entryX=0;entryY=0.5;entryDx=0;entryDy=0;endSize=1;endFill=1;strokeWidth=2;" edge="1" parent="1" source="4T01Y7rvJt7G6xIn6hby-42" target="4T01Y7rvJt7G6xIn6hby-57">
          <mxGeometry width="50" height="50" relative="1" as="geometry">
            <mxPoint x="516" y="567.5" as="sourcePoint" />
            <mxPoint x="566" y="517.5" as="targetPoint" />
          </mxGeometry>
        </mxCell>
        <mxCell id="4T01Y7rvJt7G6xIn6hby-60" value="" style="shape=trapezoid;perimeter=trapezoidPerimeter;whiteSpace=wrap;html=1;fixedSize=1;rotation=-180;fillColor=#FFFFFF;strokeWidth=1;" vertex="1" parent="1">
          <mxGeometry x="138.14999999999992" y="364.5" width="60.87" height="28.44" as="geometry" />
        </mxCell>
        <mxCell id="4T01Y7rvJt7G6xIn6hby-61" value="" style="shape=trapezoid;perimeter=trapezoidPerimeter;whiteSpace=wrap;html=1;fixedSize=1;rotation=-180;fillColor=#FFFFFF;strokeWidth=1;" vertex="1" parent="1">
          <mxGeometry x="207.10999999999996" y="364.5" width="62.65" height="28.44" as="geometry" />
        </mxCell>
        <mxCell id="4T01Y7rvJt7G6xIn6hby-62" value="&lt;font style=&quot;font-size: 8px;&quot;&gt;$$\text{RBSrc}$$&lt;/font&gt;" style="text;html=1;align=center;verticalAlign=middle;whiteSpace=wrap;rounded=0;" vertex="1" parent="1">
          <mxGeometry x="220.68" y="364.4999999999999" width="35.52" height="16.44" as="geometry" />
        </mxCell>
        <mxCell id="4T01Y7rvJt7G6xIn6hby-63" value="&lt;font style=&quot;font-size: 8px;&quot;&gt;$$\text{RSrc}$$&lt;/font&gt;" style="text;html=1;align=center;verticalAlign=middle;whiteSpace=wrap;rounded=0;" vertex="1" parent="1">
          <mxGeometry x="150.81999999999988" y="364.4999999999999" width="35.52" height="16.44" as="geometry" />
        </mxCell>
        <mxCell id="4T01Y7rvJt7G6xIn6hby-64" style="edgeStyle=orthogonalEdgeStyle;rounded=0;orthogonalLoop=1;jettySize=auto;html=1;entryX=0.168;entryY=0.002;entryDx=0;entryDy=0;entryPerimeter=0;endSize=1;endArrow=block;endFill=1;strokeWidth=2;" edge="1" parent="1" source="4T01Y7rvJt7G6xIn6hby-60" target="4T01Y7rvJt7G6xIn6hby-29">
          <mxGeometry relative="1" as="geometry" />
        </mxCell>
        <mxCell id="4T01Y7rvJt7G6xIn6hby-65" style="edgeStyle=orthogonalEdgeStyle;rounded=0;orthogonalLoop=1;jettySize=auto;html=1;entryX=0.829;entryY=0.012;entryDx=0;entryDy=0;entryPerimeter=0;endSize=1;endArrow=block;endFill=1;strokeWidth=2;" edge="1" parent="1" source="4T01Y7rvJt7G6xIn6hby-61" target="4T01Y7rvJt7G6xIn6hby-20">
          <mxGeometry relative="1" as="geometry" />
        </mxCell>
        <mxCell id="4T01Y7rvJt7G6xIn6hby-66" value="" style="ellipse;whiteSpace=wrap;html=1;aspect=fixed;fillColor=#F0F0F0;" vertex="1" parent="1">
          <mxGeometry x="312.88461538461524" y="457.9652631578948" width="21.16315789473683" height="21.16315789473683" as="geometry" />
        </mxCell>
        <mxCell id="4T01Y7rvJt7G6xIn6hby-67" value="" style="endArrow=blockThin;html=1;rounded=0;exitX=1;exitY=0.5;exitDx=0;exitDy=0;entryX=0;entryY=0;entryDx=0;entryDy=0;endFill=1;endSize=1;" edge="1" parent="1" target="4T01Y7rvJt7G6xIn6hby-66">
          <mxGeometry width="50" height="50" relative="1" as="geometry">
            <mxPoint x="297.5" y="449.5" as="sourcePoint" />
            <mxPoint x="374.4230769230769" y="424.1042105263159" as="targetPoint" />
            <Array as="points">
              <mxPoint x="312.88461538461524" y="449.5" />
            </Array>
          </mxGeometry>
        </mxCell>
        <mxCell id="4T01Y7rvJt7G6xIn6hby-68" value="" style="endArrow=blockThin;html=1;rounded=0;entryX=0;entryY=1;entryDx=0;entryDy=0;exitX=1;exitY=0.5;exitDx=0;exitDy=0;endFill=1;endSize=1;" edge="1" parent="1" target="4T01Y7rvJt7G6xIn6hby-66">
          <mxGeometry width="50" height="50" relative="1" as="geometry">
            <mxPoint x="297.5" y="491.8263157894737" as="sourcePoint" />
            <mxPoint x="328.2692307692307" y="500.2915789473684" as="targetPoint" />
            <Array as="points">
              <mxPoint x="312.88461538461524" y="491.8263157894737" />
            </Array>
          </mxGeometry>
        </mxCell>
        <mxCell id="4T01Y7rvJt7G6xIn6hby-69" value="&lt;font style=&quot;font-size: 14px;&quot;&gt;$$\geq$$&lt;/font&gt;" style="text;html=1;align=center;verticalAlign=middle;whiteSpace=wrap;rounded=0;" vertex="1" parent="1">
          <mxGeometry x="317.6538461538462" y="461.48007017543864" width="11.538461538461535" height="12.6978947368421" as="geometry" />
        </mxCell>
        <mxCell id="4T01Y7rvJt7G6xIn6hby-70" style="edgeStyle=orthogonalEdgeStyle;rounded=0;orthogonalLoop=1;jettySize=auto;html=1;exitX=1.013;exitY=0.599;exitDx=0;exitDy=0;entryX=0;entryY=0.5;entryDx=0;entryDy=0;endArrow=blockThin;endFill=1;curved=0;endSize=1;exitPerimeter=0;" edge="1" parent="1">
          <mxGeometry relative="1" as="geometry">
            <mxPoint x="334.3228943319839" y="470.6419947368422" as="sourcePoint" />
            <mxPoint x="347.5" y="470.66315789473674" as="targetPoint" />
          </mxGeometry>
        </mxCell>
        <mxCell id="4T01Y7rvJt7G6xIn6hby-71" value="" style="ellipse;whiteSpace=wrap;html=1;aspect=fixed;fillColor=#F0F0F0;" vertex="1" parent="1">
          <mxGeometry x="312.88461538461524" y="517.2221052631578" width="21.16315789473683" height="21.16315789473683" as="geometry" />
        </mxCell>
        <mxCell id="4T01Y7rvJt7G6xIn6hby-72" value="" style="endArrow=blockThin;html=1;rounded=0;exitX=1;exitY=0.5;exitDx=0;exitDy=0;entryX=0;entryY=0;entryDx=0;entryDy=0;endFill=1;endSize=1;" edge="1" parent="1" target="4T01Y7rvJt7G6xIn6hby-71">
          <mxGeometry width="50" height="50" relative="1" as="geometry">
            <mxPoint x="297.5" y="508.7568421052631" as="sourcePoint" />
            <mxPoint x="374.4230769230769" y="483.3610526315789" as="targetPoint" />
            <Array as="points">
              <mxPoint x="312.88461538461524" y="508.7568421052631" />
            </Array>
          </mxGeometry>
        </mxCell>
        <mxCell id="4T01Y7rvJt7G6xIn6hby-73" value="" style="endArrow=blockThin;html=1;rounded=0;entryX=0;entryY=1;entryDx=0;entryDy=0;exitX=1;exitY=0.5;exitDx=0;exitDy=0;endFill=1;endSize=1;" edge="1" parent="1" target="4T01Y7rvJt7G6xIn6hby-71">
          <mxGeometry width="50" height="50" relative="1" as="geometry">
            <mxPoint x="297.5" y="551.0831578947368" as="sourcePoint" />
            <mxPoint x="328.2692307692307" y="559.5484210526315" as="targetPoint" />
            <Array as="points">
              <mxPoint x="312.88461538461524" y="551.0831578947368" />
            </Array>
          </mxGeometry>
        </mxCell>
        <mxCell id="4T01Y7rvJt7G6xIn6hby-74" value="&lt;font style=&quot;font-size: 14px;&quot;&gt;$$\geq$$&lt;/font&gt;" style="text;html=1;align=center;verticalAlign=middle;whiteSpace=wrap;rounded=0;" vertex="1" parent="1">
          <mxGeometry x="317.6538461538462" y="520.7369122807017" width="11.538461538461535" height="12.6978947368421" as="geometry" />
        </mxCell>
        <mxCell id="4T01Y7rvJt7G6xIn6hby-75" style="edgeStyle=orthogonalEdgeStyle;rounded=0;orthogonalLoop=1;jettySize=auto;html=1;exitX=1.004;exitY=0.599;exitDx=0;exitDy=0;entryX=0;entryY=0.5;entryDx=0;entryDy=0;endArrow=blockThin;endFill=1;endSize=1;exitPerimeter=0;" edge="1" parent="1">
          <mxGeometry relative="1" as="geometry">
            <mxPoint x="334.13242591093126" y="529.8988368421051" as="sourcePoint" />
            <mxPoint x="347.5" y="529.9200000000001" as="targetPoint" />
          </mxGeometry>
        </mxCell>
        <mxCell id="4T01Y7rvJt7G6xIn6hby-76" value="" style="rounded=0;whiteSpace=wrap;html=1;" vertex="1" parent="1">
          <mxGeometry x="347.5" y="453.73263157894723" width="15.384615384615378" height="33.86105263157893" as="geometry" />
        </mxCell>
        <mxCell id="4T01Y7rvJt7G6xIn6hby-77" value="" style="triangle;whiteSpace=wrap;html=1;rotation=-90;" vertex="1" parent="1">
          <mxGeometry x="351.3461538461538" y="479.12842105263167" width="7.692307692307689" height="8.465263157894732" as="geometry" />
        </mxCell>
        <mxCell id="4T01Y7rvJt7G6xIn6hby-78" value="" style="rounded=0;whiteSpace=wrap;html=1;" vertex="1" parent="1">
          <mxGeometry x="347.5" y="512.9894736842105" width="15.384615384615378" height="33.86105263157893" as="geometry" />
        </mxCell>
        <mxCell id="4T01Y7rvJt7G6xIn6hby-79" value="" style="triangle;whiteSpace=wrap;html=1;rotation=-90;" vertex="1" parent="1">
          <mxGeometry x="351.3461538461538" y="538.3852631578948" width="7.692307692307689" height="8.465263157894732" as="geometry" />
        </mxCell>
        <mxCell id="4T01Y7rvJt7G6xIn6hby-80" value="" style="ellipse;whiteSpace=wrap;html=1;aspect=fixed;fillColor=#F0F0F0;" vertex="1" parent="1">
          <mxGeometry x="312.88461538461524" y="576.4789473684211" width="21.16315789473683" height="21.16315789473683" as="geometry" />
        </mxCell>
        <mxCell id="4T01Y7rvJt7G6xIn6hby-81" value="" style="endArrow=blockThin;html=1;rounded=0;exitX=1;exitY=0.5;exitDx=0;exitDy=0;entryX=0;entryY=0;entryDx=0;entryDy=0;endFill=1;endSize=1;" edge="1" parent="1" target="4T01Y7rvJt7G6xIn6hby-80">
          <mxGeometry width="50" height="50" relative="1" as="geometry">
            <mxPoint x="297.5" y="568.0136842105262" as="sourcePoint" />
            <mxPoint x="374.4230769230769" y="542.6178947368419" as="targetPoint" />
            <Array as="points">
              <mxPoint x="312.88461538461524" y="568.0136842105262" />
            </Array>
          </mxGeometry>
        </mxCell>
        <mxCell id="4T01Y7rvJt7G6xIn6hby-82" value="" style="endArrow=blockThin;html=1;rounded=0;entryX=0;entryY=1;entryDx=0;entryDy=0;exitX=1;exitY=0.5;exitDx=0;exitDy=0;endFill=1;endSize=1;" edge="1" parent="1" target="4T01Y7rvJt7G6xIn6hby-80">
          <mxGeometry width="50" height="50" relative="1" as="geometry">
            <mxPoint x="297.5" y="610.3399999999999" as="sourcePoint" />
            <mxPoint x="328.2692307692307" y="618.8052631578946" as="targetPoint" />
            <Array as="points">
              <mxPoint x="312.88461538461524" y="610.3399999999999" />
            </Array>
          </mxGeometry>
        </mxCell>
        <mxCell id="4T01Y7rvJt7G6xIn6hby-83" value="&lt;font style=&quot;font-size: 14px;&quot;&gt;$$\geq$$&lt;/font&gt;" style="text;html=1;align=center;verticalAlign=middle;whiteSpace=wrap;rounded=0;" vertex="1" parent="1">
          <mxGeometry x="317.6538461538462" y="579.9937543859648" width="11.538461538461535" height="12.6978947368421" as="geometry" />
        </mxCell>
        <mxCell id="4T01Y7rvJt7G6xIn6hby-84" style="edgeStyle=orthogonalEdgeStyle;rounded=0;orthogonalLoop=1;jettySize=auto;html=1;exitX=1.021;exitY=0.604;exitDx=0;exitDy=0;entryX=0;entryY=0.5;entryDx=0;entryDy=0;endArrow=blockThin;endFill=1;curved=0;endSize=1;exitPerimeter=0;" edge="1" parent="1">
          <mxGeometry relative="1" as="geometry">
            <mxPoint x="333.49219959514176" y="589.2614947368422" as="sourcePoint" />
            <mxPoint x="346.5" y="589.176842105263" as="targetPoint" />
          </mxGeometry>
        </mxCell>
        <mxCell id="4T01Y7rvJt7G6xIn6hby-85" value="" style="rounded=0;whiteSpace=wrap;html=1;" vertex="1" parent="1">
          <mxGeometry x="347.5" y="572.2463157894736" width="15.384615384615378" height="33.86105263157893" as="geometry" />
        </mxCell>
        <mxCell id="4T01Y7rvJt7G6xIn6hby-86" value="" style="triangle;whiteSpace=wrap;html=1;rotation=-90;" vertex="1" parent="1">
          <mxGeometry x="351.3461538461538" y="597.6421052631576" width="7.692307692307689" height="8.465263157894732" as="geometry" />
        </mxCell>
        <mxCell id="4T01Y7rvJt7G6xIn6hby-87" value="" style="ellipse;whiteSpace=wrap;html=1;aspect=fixed;fillColor=#F0F0F0;" vertex="1" parent="1">
          <mxGeometry x="374.4230769230769" y="487.59368421052625" width="21.16315789473683" height="21.16315789473683" as="geometry" />
        </mxCell>
        <mxCell id="4T01Y7rvJt7G6xIn6hby-88" value="&lt;font style=&quot;font-size: 14px;&quot;&gt;$$\geq$$&lt;/font&gt;" style="text;html=1;align=center;verticalAlign=middle;whiteSpace=wrap;rounded=0;" vertex="1" parent="1">
          <mxGeometry x="379.1923076923076" y="491.1084912280703" width="11.538461538461535" height="12.6978947368421" as="geometry" />
        </mxCell>
        <mxCell id="4T01Y7rvJt7G6xIn6hby-89" value="" style="endArrow=blockThin;html=1;rounded=0;exitX=1;exitY=0.5;exitDx=0;exitDy=0;entryX=0;entryY=0;entryDx=0;entryDy=0;endFill=1;endSize=1;" edge="1" parent="1" source="4T01Y7rvJt7G6xIn6hby-76" target="4T01Y7rvJt7G6xIn6hby-87">
          <mxGeometry width="50" height="50" relative="1" as="geometry">
            <mxPoint x="378.2692307692307" y="500.2915789473684" as="sourcePoint" />
            <mxPoint x="416.7307692307693" y="457.9652631578948" as="targetPoint" />
            <Array as="points">
              <mxPoint x="370.5769230769231" y="470.66315789473686" />
            </Array>
          </mxGeometry>
        </mxCell>
        <mxCell id="4T01Y7rvJt7G6xIn6hby-90" value="" style="endArrow=blockThin;html=1;rounded=0;exitX=1;exitY=0.5;exitDx=0;exitDy=0;entryX=0;entryY=1;entryDx=0;entryDy=0;endFill=1;endSize=1;" edge="1" parent="1" source="4T01Y7rvJt7G6xIn6hby-78" target="4T01Y7rvJt7G6xIn6hby-87">
          <mxGeometry width="50" height="50" relative="1" as="geometry">
            <mxPoint x="401.3461538461536" y="568.0136842105262" as="sourcePoint" />
            <mxPoint x="439.8076923076924" y="525.6873684210527" as="targetPoint" />
            <Array as="points">
              <mxPoint x="370.5769230769231" y="529.9199999999998" />
            </Array>
          </mxGeometry>
        </mxCell>
        <mxCell id="4T01Y7rvJt7G6xIn6hby-91" value="" style="endArrow=none;dashed=1;html=1;dashPattern=1 3;strokeWidth=2;rounded=0;" edge="1" parent="1">
          <mxGeometry width="50" height="50" relative="1" as="geometry">
            <mxPoint x="335.96000000000004" y="568.7191228070176" as="sourcePoint" />
            <mxPoint x="335.96000000000004" y="550.3777192982457" as="targetPoint" />
          </mxGeometry>
        </mxCell>
        <mxCell id="4T01Y7rvJt7G6xIn6hby-92" value="" style="endArrow=none;dashed=1;html=1;dashPattern=1 3;strokeWidth=2;rounded=0;" edge="1" parent="1">
          <mxGeometry width="50" height="50" relative="1" as="geometry">
            <mxPoint x="379.19000000000005" y="548.7463736842105" as="sourcePoint" />
            <mxPoint x="399.1899999999998" y="548.7188615789473" as="targetPoint" />
          </mxGeometry>
        </mxCell>
        <mxCell id="4T01Y7rvJt7G6xIn6hby-93" value="" style="endArrow=blockThin;html=1;rounded=0;exitX=1;exitY=0.5;exitDx=0;exitDy=0;entryX=0;entryY=1;entryDx=0;entryDy=0;endFill=1;endSize=1;" edge="1" parent="1">
          <mxGeometry width="50" height="50" relative="1" as="geometry">
            <mxPoint x="362.8799999999999" y="589.454079473684" as="sourcePoint" />
            <mxPoint x="377.8799999999999" y="565.6102549122807" as="targetPoint" />
            <Array as="points">
              <mxPoint x="370.456923076923" y="589.5937563157893" />
            </Array>
          </mxGeometry>
        </mxCell>
        <mxCell id="4T01Y7rvJt7G6xIn6hby-95" value="" style="endArrow=block;html=1;rounded=0;exitX=1;exitY=0.5;exitDx=0;exitDy=0;entryX=0.587;entryY=-0.022;entryDx=0;entryDy=0;entryPerimeter=0;endSize=1;endFill=1;strokeWidth=2;" edge="1" parent="1" target="4T01Y7rvJt7G6xIn6hby-58">
          <mxGeometry width="50" height="50" relative="1" as="geometry">
            <mxPoint x="82.84999999999832" y="523.595" as="sourcePoint" />
            <mxPoint x="104.99999999999994" y="523.72" as="targetPoint" />
          </mxGeometry>
        </mxCell>
        <mxCell id="4T01Y7rvJt7G6xIn6hby-97" style="edgeStyle=orthogonalEdgeStyle;rounded=0;orthogonalLoop=1;jettySize=auto;html=1;entryX=0.25;entryY=1;entryDx=0;entryDy=0;endSize=1;strokeWidth=2;endArrow=block;endFill=1;" edge="1" parent="1" source="4T01Y7rvJt7G6xIn6hby-98" target="4T01Y7rvJt7G6xIn6hby-61">
          <mxGeometry relative="1" as="geometry" />
        </mxCell>
        <mxCell id="4T01Y7rvJt7G6xIn6hby-98" value="&lt;font style=&quot;font-size: 8px;&quot;&gt;$$0$$&lt;/font&gt;" style="rounded=0;whiteSpace=wrap;html=1;" vertex="1" parent="1">
          <mxGeometry x="248.70999999999998" y="322.5" width="11.34" height="17" as="geometry" />
        </mxCell>
        <mxCell id="4T01Y7rvJt7G6xIn6hby-99" style="edgeStyle=orthogonalEdgeStyle;rounded=0;orthogonalLoop=1;jettySize=auto;html=1;entryX=0.75;entryY=1;entryDx=0;entryDy=0;endSize=1;endArrow=block;endFill=1;strokeWidth=2;" edge="1" parent="1" source="4T01Y7rvJt7G6xIn6hby-100" target="4T01Y7rvJt7G6xIn6hby-61">
          <mxGeometry relative="1" as="geometry" />
        </mxCell>
        <mxCell id="4T01Y7rvJt7G6xIn6hby-100" value="&lt;font style=&quot;font-size: 8px;&quot;&gt;$$\text{DecRB}$$&lt;/font&gt;" style="rounded=0;whiteSpace=wrap;html=1;" vertex="1" parent="1">
          <mxGeometry x="207.10999999999984" y="285.5" width="50.1" height="28" as="geometry" />
        </mxCell>
        <mxCell id="4T01Y7rvJt7G6xIn6hby-101" style="edgeStyle=orthogonalEdgeStyle;rounded=0;orthogonalLoop=1;jettySize=auto;html=1;entryX=0.25;entryY=1;entryDx=0;entryDy=0;endSize=1;strokeWidth=2;endArrow=block;endFill=1;" edge="1" parent="1" source="4T01Y7rvJt7G6xIn6hby-102">
          <mxGeometry relative="1" as="geometry">
            <mxPoint x="183.99999999999994" y="364.5" as="targetPoint" />
          </mxGeometry>
        </mxCell>
        <mxCell id="4T01Y7rvJt7G6xIn6hby-102" value="&lt;font style=&quot;font-size: 8px;&quot;&gt;$$0$$&lt;/font&gt;" style="rounded=0;whiteSpace=wrap;html=1;" vertex="1" parent="1">
          <mxGeometry x="178.70999999999998" y="322.5" width="11.34" height="17" as="geometry" />
        </mxCell>
        <mxCell id="4T01Y7rvJt7G6xIn6hby-103" style="edgeStyle=orthogonalEdgeStyle;rounded=0;orthogonalLoop=1;jettySize=auto;html=1;entryX=0.75;entryY=1;entryDx=0;entryDy=0;endSize=1;endArrow=block;endFill=1;strokeWidth=2;" edge="1" parent="1" source="4T01Y7rvJt7G6xIn6hby-104">
          <mxGeometry relative="1" as="geometry">
            <mxPoint x="152.99999999999994" y="364.5" as="targetPoint" />
          </mxGeometry>
        </mxCell>
        <mxCell id="4T01Y7rvJt7G6xIn6hby-104" value="&lt;font style=&quot;font-size: 8px;&quot;&gt;$$\text{DecR}$$&lt;/font&gt;" style="rounded=0;whiteSpace=wrap;html=1;" vertex="1" parent="1">
          <mxGeometry x="137.10999999999984" y="285.5" width="50.1" height="28" as="geometry" />
        </mxCell>
        <mxCell id="4T01Y7rvJt7G6xIn6hby-105" style="edgeStyle=orthogonalEdgeStyle;rounded=0;orthogonalLoop=1;jettySize=auto;html=1;entryX=0.5;entryY=0;entryDx=0;entryDy=0;endSize=1;endArrow=block;endFill=1;strokeWidth=2;" edge="1" parent="1" source="4T01Y7rvJt7G6xIn6hby-106" target="4T01Y7rvJt7G6xIn6hby-104">
          <mxGeometry relative="1" as="geometry" />
        </mxCell>
        <mxCell id="4T01Y7rvJt7G6xIn6hby-106" value="" style="shape=trapezoid;perimeter=trapezoidPerimeter;whiteSpace=wrap;html=1;fixedSize=1;rotation=-180;fillColor=#FFFFFF;strokeWidth=1;flipH=0;flipV=0;direction=east;" vertex="1" parent="1">
          <mxGeometry x="131.71999999999997" y="237.5" width="60.87" height="28.44" as="geometry" />
        </mxCell>
        <mxCell id="4T01Y7rvJt7G6xIn6hby-107" value="&lt;font style=&quot;font-size: 8px;&quot;&gt;$$\text{DecRSrc}$$&lt;/font&gt;" style="text;html=1;align=center;verticalAlign=middle;whiteSpace=wrap;rounded=0;" vertex="1" parent="1">
          <mxGeometry x="140.73999999999995" y="240.5" width="42.84" height="12.56" as="geometry" />
        </mxCell>
        <mxCell id="4T01Y7rvJt7G6xIn6hby-108" value="" style="endArrow=block;html=1;rounded=0;endFill=1;strokeWidth=2;exitX=0.974;exitY=0.616;exitDx=0;exitDy=0;exitPerimeter=0;startFill=0;endSize=1;entryX=-0.003;entryY=0.547;entryDx=0;entryDy=0;entryPerimeter=0;" edge="1" parent="1" source="4T01Y7rvJt7G6xIn6hby-16" target="4T01Y7rvJt7G6xIn6hby-40">
          <mxGeometry width="50" height="50" relative="1" as="geometry">
            <mxPoint x="265.0088399999999" y="537.3500000000004" as="sourcePoint" />
            <mxPoint x="295" y="537.5" as="targetPoint" />
          </mxGeometry>
        </mxCell>
        <mxCell id="4T01Y7rvJt7G6xIn6hby-109" value="" style="shape=trapezoid;perimeter=trapezoidPerimeter;whiteSpace=wrap;html=1;fixedSize=1;rotation=180;fillColor=#FFFFFF;strokeWidth=1;" vertex="1" parent="1">
          <mxGeometry x="284" y="329.505" width="75.65" height="28.44" as="geometry" />
        </mxCell>
        <mxCell id="4T01Y7rvJt7G6xIn6hby-110" value="" style="group;rotation=90;" vertex="1" connectable="0" parent="1">
          <mxGeometry x="307" y="343.505" width="32.22" height="62.09" as="geometry" />
        </mxCell>
        <mxCell id="4T01Y7rvJt7G6xIn6hby-111" value="" style="rounded=0;whiteSpace=wrap;html=1;rotation=90;" vertex="1" parent="4T01Y7rvJt7G6xIn6hby-110">
          <mxGeometry x="6.11" y="3.8899999999999997" width="20" height="62.09" as="geometry" />
        </mxCell>
        <mxCell id="4T01Y7rvJt7G6xIn6hby-112" value="" style="triangle;whiteSpace=wrap;html=1;rotation=0;" vertex="1" parent="4T01Y7rvJt7G6xIn6hby-110">
          <mxGeometry x="-14.98" y="28.15" width="17.09" height="13.57" as="geometry" />
        </mxCell>
        <mxCell id="4T01Y7rvJt7G6xIn6hby-113" value="&lt;font style=&quot;font-size: 8px;&quot;&gt;$$\text{TrigMTreeSrc}$$&lt;/font&gt;" style="text;html=1;align=center;verticalAlign=middle;whiteSpace=wrap;rounded=0;rotation=0;" vertex="1" parent="1">
          <mxGeometry x="291.81999999999994" y="328.505" width="60" height="18" as="geometry" />
        </mxCell>
        <mxCell id="4T01Y7rvJt7G6xIn6hby-114" value="" style="endArrow=block;html=1;rounded=0;exitX=0.5;exitY=0;exitDx=0;exitDy=0;entryX=0.006;entryY=0.525;entryDx=0;entryDy=0;entryPerimeter=0;endSize=1;endFill=1;strokeWidth=2;" edge="1" parent="1" source="4T01Y7rvJt7G6xIn6hby-109" target="4T01Y7rvJt7G6xIn6hby-111">
          <mxGeometry width="50" height="50" relative="1" as="geometry">
            <mxPoint x="280" y="359.505" as="sourcePoint" />
            <mxPoint x="330" y="409.505" as="targetPoint" />
          </mxGeometry>
        </mxCell>
        <mxCell id="4T01Y7rvJt7G6xIn6hby-115" style="edgeStyle=orthogonalEdgeStyle;rounded=0;orthogonalLoop=1;jettySize=auto;html=1;entryX=0.25;entryY=1;entryDx=0;entryDy=0;endSize=1;strokeWidth=2;endArrow=block;endFill=1;" edge="1" parent="1" source="4T01Y7rvJt7G6xIn6hby-116">
          <mxGeometry relative="1" as="geometry">
            <mxPoint x="339.48" y="329.5" as="targetPoint" />
          </mxGeometry>
        </mxCell>
        <mxCell id="4T01Y7rvJt7G6xIn6hby-116" value="&lt;font style=&quot;font-size: 8px;&quot;&gt;$$0$$&lt;/font&gt;" style="rounded=0;whiteSpace=wrap;html=1;" vertex="1" parent="1">
          <mxGeometry x="334.19000000000005" y="286.5" width="11.34" height="17" as="geometry" />
        </mxCell>
        <mxCell id="4T01Y7rvJt7G6xIn6hby-117" value="" style="endArrow=block;html=1;rounded=0;entryX=0.75;entryY=1;entryDx=0;entryDy=0;strokeWidth=2;endFill=1;endSize=1;" edge="1" parent="1" target="4T01Y7rvJt7G6xIn6hby-109">
          <mxGeometry width="50" height="50" relative="1" as="geometry">
            <mxPoint x="232.99999999999994" y="318.5" as="sourcePoint" />
            <mxPoint x="395" y="318.5" as="targetPoint" />
            <Array as="points">
              <mxPoint x="303" y="318.5" />
            </Array>
          </mxGeometry>
        </mxCell>
        <mxCell id="4T01Y7rvJt7G6xIn6hby-118" value="" style="endArrow=block;html=1;rounded=0;exitX=0.997;exitY=0.522;exitDx=0;exitDy=0;exitPerimeter=0;entryX=0.65;entryY=-0.047;entryDx=0;entryDy=0;entryPerimeter=0;strokeWidth=2;endFill=1;endSize=1;" edge="1" parent="1" source="4T01Y7rvJt7G6xIn6hby-111" target="4T01Y7rvJt7G6xIn6hby-41">
          <mxGeometry width="50" height="50" relative="1" as="geometry">
            <mxPoint x="375" y="425.5" as="sourcePoint" />
            <mxPoint x="425" y="375.5" as="targetPoint" />
          </mxGeometry>
        </mxCell>
        <mxCell id="4T01Y7rvJt7G6xIn6hby-166" value="" style="endArrow=block;html=1;rounded=0;strokeWidth=2;endSize=1;endFill=1;entryX=0;entryY=0.75;entryDx=0;entryDy=0;" edge="1" parent="1" target="4T01Y7rvJt7G6xIn6hby-57">
          <mxGeometry width="50" height="50" relative="1" as="geometry">
            <mxPoint x="84.99999999999994" y="524.5" as="sourcePoint" />
            <mxPoint x="94.99999999999994" y="564.5" as="targetPoint" />
            <Array as="points">
              <mxPoint x="84.99999999999994" y="555.5" />
              <mxPoint x="84.99999999999994" y="585.5" />
              <mxPoint x="84.99999999999994" y="645.5" />
              <mxPoint x="485" y="645.5" />
              <mxPoint x="485" y="574.5" />
            </Array>
          </mxGeometry>
        </mxCell>
        <mxCell id="4T01Y7rvJt7G6xIn6hby-167" value="" style="endArrow=block;html=1;rounded=0;entryX=0.344;entryY=-0.008;entryDx=0;entryDy=0;entryPerimeter=0;endSize=1;endFill=1;strokeWidth=2;exitX=1.005;exitY=0.758;exitDx=0;exitDy=0;exitPerimeter=0;" edge="1" parent="1" source="4T01Y7rvJt7G6xIn6hby-57" target="4T01Y7rvJt7G6xIn6hby-58">
          <mxGeometry width="50" height="50" relative="1" as="geometry">
            <mxPoint x="555.366" y="575.63" as="sourcePoint" />
            <mxPoint x="98.5652399999999" y="555.43032" as="targetPoint" />
            <Array as="points">
              <mxPoint x="562" y="575.5" />
              <mxPoint x="562" y="615.5" />
              <mxPoint x="562" y="655.5" />
              <mxPoint x="91.99999999999994" y="655.5" />
              <mxPoint x="92" y="605.5" />
              <mxPoint x="92" y="555.5" />
            </Array>
          </mxGeometry>
        </mxCell>
        <mxCell id="4T01Y7rvJt7G6xIn6hby-168" value="" style="endArrow=none;html=1;rounded=0;endSize=1;endFill=1;strokeWidth=2;startFill=0;" edge="1" parent="1">
          <mxGeometry width="50" height="50" relative="1" as="geometry">
            <mxPoint x="279.8399999999999" y="576.5" as="sourcePoint" />
            <mxPoint x="515" y="246" as="targetPoint" />
            <Array as="points">
              <mxPoint x="280" y="246" />
              <mxPoint x="385" y="246" />
              <mxPoint x="425" y="246" />
            </Array>
          </mxGeometry>
        </mxCell>
        <mxCell id="4T01Y7rvJt7G6xIn6hby-169" style="edgeStyle=orthogonalEdgeStyle;rounded=0;orthogonalLoop=1;jettySize=auto;html=1;endSize=1;endArrow=block;endFill=1;strokeWidth=2;" edge="1" parent="1" source="4T01Y7rvJt7G6xIn6hby-170">
          <mxGeometry relative="1" as="geometry">
            <mxPoint x="601" y="245.5" as="targetPoint" />
          </mxGeometry>
        </mxCell>
        <mxCell id="4T01Y7rvJt7G6xIn6hby-170" value="" style="shape=trapezoid;perimeter=trapezoidPerimeter;whiteSpace=wrap;html=1;fixedSize=1;rotation=-90;fillColor=#FFFFFF;strokeWidth=1;" vertex="1" parent="1">
          <mxGeometry x="481.79999999999995" y="231.06000000000017" width="131.22" height="28.44" as="geometry" />
        </mxCell>
        <mxCell id="4T01Y7rvJt7G6xIn6hby-171" value="" style="endArrow=block;html=1;rounded=0;entryX=-0.005;entryY=0.335;entryDx=0;entryDy=0;entryPerimeter=0;endSize=1;endFill=1;strokeWidth=2;" edge="1" parent="1">
          <mxGeometry width="50" height="50" relative="1" as="geometry">
            <mxPoint x="510.8399999999999" y="245.5" as="sourcePoint" />
            <mxPoint x="532.8599999999999" y="220.16000000000008" as="targetPoint" />
            <Array as="points">
              <mxPoint x="520.8399999999999" y="220.5" />
            </Array>
          </mxGeometry>
        </mxCell>
        <mxCell id="4T01Y7rvJt7G6xIn6hby-172" value="" style="endArrow=block;html=1;rounded=0;entryX=-0.005;entryY=0.335;entryDx=0;entryDy=0;entryPerimeter=0;endSize=1;endFill=1;strokeWidth=2;" edge="1" parent="1">
          <mxGeometry width="50" height="50" relative="1" as="geometry">
            <mxPoint x="510.8399999999999" y="245.5" as="sourcePoint" />
            <mxPoint x="532.8599999999999" y="230.16000000000008" as="targetPoint" />
            <Array as="points">
              <mxPoint x="520.8399999999999" y="230.5" />
            </Array>
          </mxGeometry>
        </mxCell>
        <mxCell id="4T01Y7rvJt7G6xIn6hby-173" value="" style="endArrow=block;html=1;rounded=0;entryX=-0.005;entryY=0.335;entryDx=0;entryDy=0;entryPerimeter=0;endSize=1;endFill=1;strokeWidth=2;" edge="1" parent="1">
          <mxGeometry width="50" height="50" relative="1" as="geometry">
            <mxPoint x="510.8399999999999" y="245.5" as="sourcePoint" />
            <mxPoint x="532.8599999999999" y="240.16000000000008" as="targetPoint" />
            <Array as="points">
              <mxPoint x="520.8399999999999" y="240.5" />
            </Array>
          </mxGeometry>
        </mxCell>
        <mxCell id="4T01Y7rvJt7G6xIn6hby-174" value="" style="endArrow=block;html=1;rounded=0;entryX=-0.005;entryY=0.335;entryDx=0;entryDy=0;entryPerimeter=0;endSize=1;endFill=1;strokeWidth=2;" edge="1" parent="1">
          <mxGeometry width="50" height="50" relative="1" as="geometry">
            <mxPoint x="510.8399999999999" y="245.5" as="sourcePoint" />
            <mxPoint x="532.8599999999999" y="250.16000000000008" as="targetPoint" />
            <Array as="points">
              <mxPoint x="520.8399999999999" y="250.5" />
            </Array>
          </mxGeometry>
        </mxCell>
        <mxCell id="4T01Y7rvJt7G6xIn6hby-175" value="" style="endArrow=block;html=1;rounded=0;entryX=-0.005;entryY=0.335;entryDx=0;entryDy=0;entryPerimeter=0;endSize=1;endFill=1;strokeWidth=2;" edge="1" parent="1">
          <mxGeometry width="50" height="50" relative="1" as="geometry">
            <mxPoint x="510.8399999999999" y="245.5" as="sourcePoint" />
            <mxPoint x="532.8599999999999" y="260.1600000000001" as="targetPoint" />
            <Array as="points">
              <mxPoint x="520.8399999999999" y="260.5" />
            </Array>
          </mxGeometry>
        </mxCell>
        <mxCell id="4T01Y7rvJt7G6xIn6hby-176" value="" style="endArrow=block;html=1;rounded=0;entryX=-0.005;entryY=0.335;entryDx=0;entryDy=0;entryPerimeter=0;endSize=1;endFill=1;strokeWidth=2;" edge="1" parent="1">
          <mxGeometry width="50" height="50" relative="1" as="geometry">
            <mxPoint x="510.8399999999999" y="245.5" as="sourcePoint" />
            <mxPoint x="532.8599999999999" y="270.1600000000001" as="targetPoint" />
            <Array as="points">
              <mxPoint x="520.8399999999999" y="270.5" />
            </Array>
          </mxGeometry>
        </mxCell>
        <mxCell id="4T01Y7rvJt7G6xIn6hby-177" value="" style="endArrow=block;html=1;rounded=0;entryX=-0.005;entryY=0.335;entryDx=0;entryDy=0;entryPerimeter=0;endSize=1;endFill=1;strokeWidth=2;" edge="1" parent="1">
          <mxGeometry width="50" height="50" relative="1" as="geometry">
            <mxPoint x="510.8399999999999" y="245.5" as="sourcePoint" />
            <mxPoint x="532.8599999999999" y="280.1600000000001" as="targetPoint" />
            <Array as="points">
              <mxPoint x="520.8399999999999" y="280.5" />
            </Array>
          </mxGeometry>
        </mxCell>
        <mxCell id="4T01Y7rvJt7G6xIn6hby-178" value="" style="endArrow=block;html=1;rounded=0;entryX=-0.005;entryY=0.335;entryDx=0;entryDy=0;entryPerimeter=0;endSize=1;endFill=1;strokeWidth=2;" edge="1" parent="1">
          <mxGeometry width="50" height="50" relative="1" as="geometry">
            <mxPoint x="510.8399999999999" y="245.5" as="sourcePoint" />
            <mxPoint x="533" y="208.5000000000001" as="targetPoint" />
            <Array as="points">
              <mxPoint x="520.8399999999999" y="208.5" />
            </Array>
          </mxGeometry>
        </mxCell>
        <mxCell id="4T01Y7rvJt7G6xIn6hby-179" style="edgeStyle=orthogonalEdgeStyle;rounded=0;orthogonalLoop=1;jettySize=auto;html=1;endSize=1;strokeWidth=2;endArrow=block;endFill=1;startFill=0;exitX=0.5;exitY=1;exitDx=0;exitDy=0;" edge="1" parent="1">
          <mxGeometry relative="1" as="geometry">
            <mxPoint x="84.88999999999993" y="523.452380952381" as="targetPoint" />
            <mxPoint x="84.88999999999999" y="182.5" as="sourcePoint" />
          </mxGeometry>
        </mxCell>
        <mxCell id="4T01Y7rvJt7G6xIn6hby-180" value="" style="group" vertex="1" connectable="0" parent="1">
          <mxGeometry x="59.83999999999986" y="157.5" width="50.10000000000002" height="28" as="geometry" />
        </mxCell>
        <mxCell id="4T01Y7rvJt7G6xIn6hby-181" value="&lt;font style=&quot;font-size: 8px;&quot;&gt;$$\text{CntIndx}$$&lt;/font&gt;" style="rounded=0;whiteSpace=wrap;html=1;" vertex="1" parent="4T01Y7rvJt7G6xIn6hby-180">
          <mxGeometry width="50.1" height="28" as="geometry" />
        </mxCell>
        <mxCell id="4T01Y7rvJt7G6xIn6hby-182" value="" style="triangle;whiteSpace=wrap;html=1;rotation=-90;" vertex="1" parent="4T01Y7rvJt7G6xIn6hby-180">
          <mxGeometry x="37.080000000000155" y="15.509999999999991" width="7.95" height="15.57" as="geometry" />
        </mxCell>
        <mxCell id="4T01Y7rvJt7G6xIn6hby-183" value="&lt;font style=&quot;font-size: 8px;&quot;&gt;$$\text{en}$$&lt;/font&gt;" style="text;html=1;align=center;verticalAlign=middle;whiteSpace=wrap;rounded=0;" vertex="1" parent="4T01Y7rvJt7G6xIn6hby-180">
          <mxGeometry x="1.1368683772161603e-13" width="10.52" height="7.54" as="geometry" />
        </mxCell>
        <mxCell id="4T01Y7rvJt7G6xIn6hby-184" value="" style="group" vertex="1" connectable="0" parent="1">
          <mxGeometry x="123.83999999999986" y="157.5" width="50.10000000000002" height="28" as="geometry" />
        </mxCell>
        <mxCell id="4T01Y7rvJt7G6xIn6hby-185" value="&lt;font style=&quot;font-size: 8px;&quot;&gt;$$\text{CntR}$$&lt;/font&gt;" style="rounded=0;whiteSpace=wrap;html=1;" vertex="1" parent="4T01Y7rvJt7G6xIn6hby-184">
          <mxGeometry width="50.1" height="28" as="geometry" />
        </mxCell>
        <mxCell id="4T01Y7rvJt7G6xIn6hby-186" value="" style="triangle;whiteSpace=wrap;html=1;rotation=-90;" vertex="1" parent="4T01Y7rvJt7G6xIn6hby-184">
          <mxGeometry x="37.080000000000155" y="15.509999999999991" width="7.95" height="15.57" as="geometry" />
        </mxCell>
        <mxCell id="4T01Y7rvJt7G6xIn6hby-187" value="&lt;font style=&quot;font-size: 8px;&quot;&gt;$$\text{en}$$&lt;/font&gt;" style="text;html=1;align=center;verticalAlign=middle;whiteSpace=wrap;rounded=0;" vertex="1" parent="4T01Y7rvJt7G6xIn6hby-184">
          <mxGeometry x="1.1368683772161603e-13" width="10.52" height="7.54" as="geometry" />
        </mxCell>
        <mxCell id="4T01Y7rvJt7G6xIn6hby-188" value="" style="endArrow=block;html=1;rounded=0;exitX=0.5;exitY=1;exitDx=0;exitDy=0;entryX=0.501;entryY=-0.204;entryDx=0;entryDy=0;entryPerimeter=0;endSize=1;endFill=1;strokeWidth=2;" edge="1" parent="1" source="4T01Y7rvJt7G6xIn6hby-185">
          <mxGeometry width="50" height="50" relative="1" as="geometry">
            <mxPoint x="171.83999999999997" y="285.5" as="sourcePoint" />
            <mxPoint x="149.20283999999998" y="237.93776000000003" as="targetPoint" />
          </mxGeometry>
        </mxCell>
        <mxCell id="4T01Y7rvJt7G6xIn6hby-189" value="" style="group" vertex="1" connectable="0" parent="1">
          <mxGeometry x="206.83999999999986" y="157.5" width="50.10000000000002" height="28" as="geometry" />
        </mxCell>
        <mxCell id="4T01Y7rvJt7G6xIn6hby-190" value="&lt;font style=&quot;font-size: 8px;&quot;&gt;$$\text{CntRB}$$&lt;/font&gt;" style="rounded=0;whiteSpace=wrap;html=1;" vertex="1" parent="4T01Y7rvJt7G6xIn6hby-189">
          <mxGeometry width="50.1" height="28" as="geometry" />
        </mxCell>
        <mxCell id="4T01Y7rvJt7G6xIn6hby-191" value="" style="triangle;whiteSpace=wrap;html=1;rotation=-90;" vertex="1" parent="4T01Y7rvJt7G6xIn6hby-189">
          <mxGeometry x="37.080000000000155" y="15.509999999999991" width="7.95" height="15.57" as="geometry" />
        </mxCell>
        <mxCell id="4T01Y7rvJt7G6xIn6hby-192" value="&lt;font style=&quot;font-size: 8px;&quot;&gt;$$\text{en}$$&lt;/font&gt;" style="text;html=1;align=center;verticalAlign=middle;whiteSpace=wrap;rounded=0;" vertex="1" parent="4T01Y7rvJt7G6xIn6hby-189">
          <mxGeometry x="1.1368683772161603e-13" width="10.52" height="7.54" as="geometry" />
        </mxCell>
        <mxCell id="4T01Y7rvJt7G6xIn6hby-193" style="edgeStyle=orthogonalEdgeStyle;rounded=0;orthogonalLoop=1;jettySize=auto;html=1;entryX=0.5;entryY=0;entryDx=0;entryDy=0;strokeWidth=2;endArrow=block;endFill=1;endSize=1;" edge="1" parent="1" source="4T01Y7rvJt7G6xIn6hby-190" target="4T01Y7rvJt7G6xIn6hby-100">
          <mxGeometry relative="1" as="geometry" />
        </mxCell>
        <mxCell id="4T01Y7rvJt7G6xIn6hby-194" value="" style="group" vertex="1" connectable="0" parent="1">
          <mxGeometry x="379.1899999999998" y="157.5" width="50.10000000000002" height="28" as="geometry" />
        </mxCell>
        <mxCell id="4T01Y7rvJt7G6xIn6hby-195" value="&lt;font style=&quot;font-size: 8px;&quot;&gt;$$\text{CntOut}$$&lt;/font&gt;" style="rounded=0;whiteSpace=wrap;html=1;" vertex="1" parent="4T01Y7rvJt7G6xIn6hby-194">
          <mxGeometry width="50.1" height="28" as="geometry" />
        </mxCell>
        <mxCell id="4T01Y7rvJt7G6xIn6hby-196" value="" style="triangle;whiteSpace=wrap;html=1;rotation=-90;" vertex="1" parent="4T01Y7rvJt7G6xIn6hby-194">
          <mxGeometry x="37.080000000000155" y="15.509999999999991" width="7.95" height="15.57" as="geometry" />
        </mxCell>
        <mxCell id="4T01Y7rvJt7G6xIn6hby-197" value="&lt;font style=&quot;font-size: 8px;&quot;&gt;$$\text{en}$$&lt;/font&gt;" style="text;html=1;align=center;verticalAlign=middle;whiteSpace=wrap;rounded=0;" vertex="1" parent="4T01Y7rvJt7G6xIn6hby-194">
          <mxGeometry width="10.52" height="7.54" as="geometry" />
        </mxCell>
        <mxCell id="4T01Y7rvJt7G6xIn6hby-199" style="edgeStyle=orthogonalEdgeStyle;rounded=0;orthogonalLoop=1;jettySize=auto;html=1;entryX=1;entryY=0.25;entryDx=0;entryDy=0;strokeWidth=2;endArrow=block;endFill=1;endSize=1;" edge="1" parent="1" source="4T01Y7rvJt7G6xIn6hby-195" target="4T01Y7rvJt7G6xIn6hby-170">
          <mxGeometry relative="1" as="geometry">
            <Array as="points">
              <mxPoint x="541.8399999999999" y="171.5" />
            </Array>
          </mxGeometry>
        </mxCell>
        <mxCell id="4T01Y7rvJt7G6xIn6hby-200" value="" style="group" vertex="1" connectable="0" parent="1">
          <mxGeometry x="449.89999999999975" y="129.5" width="50.10000000000002" height="28" as="geometry" />
        </mxCell>
        <mxCell id="4T01Y7rvJt7G6xIn6hby-201" style="edgeStyle=orthogonalEdgeStyle;rounded=0;orthogonalLoop=1;jettySize=auto;html=1;strokeWidth=2;endArrow=block;endFill=1;endSize=1;" edge="1" parent="4T01Y7rvJt7G6xIn6hby-200" source="4T01Y7rvJt7G6xIn6hby-202">
          <mxGeometry relative="1" as="geometry">
            <mxPoint x="145.00000000000023" y="14" as="targetPoint" />
          </mxGeometry>
        </mxCell>
        <mxCell id="4T01Y7rvJt7G6xIn6hby-202" value="&lt;font style=&quot;font-size: 8px;&quot;&gt;$$\text{CntAddrB}$$&lt;/font&gt;" style="rounded=0;whiteSpace=wrap;html=1;" vertex="1" parent="4T01Y7rvJt7G6xIn6hby-200">
          <mxGeometry width="50.1" height="28" as="geometry" />
        </mxCell>
        <mxCell id="4T01Y7rvJt7G6xIn6hby-203" value="" style="triangle;whiteSpace=wrap;html=1;rotation=-90;" vertex="1" parent="4T01Y7rvJt7G6xIn6hby-200">
          <mxGeometry x="37.080000000000155" y="15.509999999999991" width="7.95" height="15.57" as="geometry" />
        </mxCell>
        <mxCell id="4T01Y7rvJt7G6xIn6hby-204" value="&lt;font style=&quot;font-size: 8px;&quot;&gt;$$\text{en}$$&lt;/font&gt;" style="text;html=1;align=center;verticalAlign=middle;whiteSpace=wrap;rounded=0;" vertex="1" parent="4T01Y7rvJt7G6xIn6hby-200">
          <mxGeometry width="10.52" height="7.54" as="geometry" />
        </mxCell>
        <mxCell id="4T01Y7rvJt7G6xIn6hby-205" value="" style="endArrow=block;html=1;rounded=0;entryX=1;entryY=0.25;entryDx=0;entryDy=0;strokeWidth=2;endFill=1;endSize=1;" edge="1" parent="1" target="4T01Y7rvJt7G6xIn6hby-42">
          <mxGeometry width="50" height="50" relative="1" as="geometry">
            <mxPoint x="232.83999999999997" y="265.5" as="sourcePoint" />
            <mxPoint x="451.8104092904689" y="490.67782750318645" as="targetPoint" />
            <Array as="points">
              <mxPoint x="455" y="265.5" />
            </Array>
          </mxGeometry>
        </mxCell>
        <mxCell id="4T01Y7rvJt7G6xIn6hby-214" value="" style="rounded=1;whiteSpace=wrap;html=1;strokeColor=#006EAF;strokeWidth=2;rotation=90;" vertex="1" parent="1">
          <mxGeometry x="258.09" y="-145.25" width="48" height="462.5" as="geometry" />
        </mxCell>
        <mxCell id="4T01Y7rvJt7G6xIn6hby-217" value="" style="endArrow=block;html=1;rounded=0;exitX=0.999;exitY=0.859;exitDx=0;exitDy=0;entryX=1;entryY=0.5;entryDx=0;entryDy=0;endSize=1;endFill=1;strokeColor=#006EAF;exitPerimeter=0;" edge="1" parent="1" source="4T01Y7rvJt7G6xIn6hby-214" target="4T01Y7rvJt7G6xIn6hby-58">
          <mxGeometry width="50" height="50" relative="1" as="geometry">
            <mxPoint x="116.74000000000001" y="289.50000000000006" as="sourcePoint" />
            <mxPoint x="119.28999999999974" y="640.3499999999998" as="targetPoint" />
            <Array as="points">
              <mxPoint x="117" y="269.5" />
            </Array>
          </mxGeometry>
        </mxCell>
        <mxCell id="4T01Y7rvJt7G6xIn6hby-219" value="" style="endArrow=block;html=1;rounded=0;entryX=0.093;entryY=-0.01;entryDx=0;entryDy=0;entryPerimeter=0;strokeColor=#006EAF;endFill=1;endSize=1;" edge="1" parent="1" target="4T01Y7rvJt7G6xIn6hby-185">
          <mxGeometry width="50" height="50" relative="1" as="geometry">
            <mxPoint x="128" y="110" as="sourcePoint" />
            <mxPoint x="185" y="259.5" as="targetPoint" />
            <Array as="points" />
          </mxGeometry>
        </mxCell>
        <mxCell id="4T01Y7rvJt7G6xIn6hby-220" value="" style="endArrow=block;html=1;rounded=0;entryX=0.198;entryY=0.367;entryDx=0;entryDy=0;endSize=1;endFill=1;strokeColor=#006EAF;entryPerimeter=0;" edge="1" parent="1" target="4T01Y7rvJt7G6xIn6hby-106">
          <mxGeometry width="50" height="50" relative="1" as="geometry">
            <mxPoint x="195" y="110" as="sourcePoint" />
            <mxPoint x="25" y="379.5" as="targetPoint" />
            <Array as="points">
              <mxPoint x="195" y="256" />
            </Array>
          </mxGeometry>
        </mxCell>
        <mxCell id="4T01Y7rvJt7G6xIn6hby-221" value="" style="endArrow=block;html=1;rounded=0;entryX=0.217;entryY=0.318;entryDx=0;entryDy=0;endSize=1;endFill=1;strokeColor=#006EAF;entryPerimeter=0;exitX=1.026;exitY=0.67;exitDx=0;exitDy=0;exitPerimeter=0;" edge="1" parent="1" source="4T01Y7rvJt7G6xIn6hby-214" target="4T01Y7rvJt7G6xIn6hby-60">
          <mxGeometry width="50" height="50" relative="1" as="geometry">
            <mxPoint x="201" y="110" as="sourcePoint" />
            <mxPoint x="186.05468999999994" y="537.2657999999999" as="targetPoint" />
            <Array as="points">
              <mxPoint x="205" y="384" />
            </Array>
          </mxGeometry>
        </mxCell>
        <mxCell id="4T01Y7rvJt7G6xIn6hby-222" value="" style="endArrow=block;html=1;rounded=0;entryX=0.5;entryY=0;entryDx=0;entryDy=0;strokeColor=#006EAF;endSize=1;endFill=1;" edge="1" parent="1" target="4T01Y7rvJt7G6xIn6hby-192">
          <mxGeometry width="50" height="50" relative="1" as="geometry">
            <mxPoint x="212" y="110" as="sourcePoint" />
            <mxPoint x="275" y="219.5" as="targetPoint" />
            <Array as="points" />
          </mxGeometry>
        </mxCell>
        <mxCell id="4T01Y7rvJt7G6xIn6hby-223" value="" style="endArrow=block;html=1;rounded=0;entryX=0.194;entryY=0.366;entryDx=0;entryDy=0;entryPerimeter=0;endSize=1;endFill=1;strokeColor=#006EAF;" edge="1" parent="1" target="4T01Y7rvJt7G6xIn6hby-61">
          <mxGeometry width="50" height="50" relative="1" as="geometry">
            <mxPoint x="272" y="110" as="sourcePoint" />
            <mxPoint x="253.82469373709569" y="536.89400550585" as="targetPoint" />
            <Array as="points">
              <mxPoint x="272" y="219.5" />
              <mxPoint x="272" y="383" />
            </Array>
          </mxGeometry>
        </mxCell>
        <mxCell id="4T01Y7rvJt7G6xIn6hby-224" value="" style="endArrow=block;html=1;rounded=0;entryX=0;entryY=0.25;entryDx=0;entryDy=0;endSize=1;endFill=1;strokeColor=#006EAF;" edge="1" parent="1" target="4T01Y7rvJt7G6xIn6hby-109">
          <mxGeometry width="50" height="50" relative="1" as="geometry">
            <mxPoint x="365" y="110" as="sourcePoint" />
            <mxPoint x="375" y="269.5" as="targetPoint" />
            <Array as="points">
              <mxPoint x="365" y="209.5" />
              <mxPoint x="365" y="348" />
            </Array>
          </mxGeometry>
        </mxCell>
        <mxCell id="4T01Y7rvJt7G6xIn6hby-225" value="" style="endArrow=block;html=1;rounded=0;entryX=0.5;entryY=0;entryDx=0;entryDy=0;strokeColor=#006EAF;endSize=1;endFill=1;" edge="1" parent="1" target="4T01Y7rvJt7G6xIn6hby-197">
          <mxGeometry width="50" height="50" relative="1" as="geometry">
            <mxPoint x="384" y="110" as="sourcePoint" />
            <mxPoint x="275" y="159.5" as="targetPoint" />
            <Array as="points" />
          </mxGeometry>
        </mxCell>
        <mxCell id="4T01Y7rvJt7G6xIn6hby-226" value="" style="endArrow=block;html=1;rounded=0;entryX=0.5;entryY=0;entryDx=0;entryDy=0;endSize=1;endFill=1;strokeColor=#006EAF;" edge="1" parent="1" target="4T01Y7rvJt7G6xIn6hby-204">
          <mxGeometry width="50" height="50" relative="1" as="geometry">
            <mxPoint x="455" y="110" as="sourcePoint" />
            <mxPoint x="435" y="189.5" as="targetPoint" />
            <Array as="points" />
          </mxGeometry>
        </mxCell>
        <mxCell id="4T01Y7rvJt7G6xIn6hby-227" value="" style="endArrow=block;html=1;rounded=0;exitX=0.151;exitY=-0.001;exitDx=0;exitDy=0;exitPerimeter=0;entryX=0.751;entryY=-0.205;entryDx=0;entryDy=0;entryPerimeter=0;endSize=1;endFill=1;strokeWidth=2;" edge="1" parent="1" source="4T01Y7rvJt7G6xIn6hby-57" target="4T01Y7rvJt7G6xIn6hby-107">
          <mxGeometry width="50" height="50" relative="1" as="geometry">
            <mxPoint x="515" y="445.5" as="sourcePoint" />
            <mxPoint x="173" y="235.5" as="targetPoint" />
            <Array as="points">
              <mxPoint x="506" y="225.5" />
              <mxPoint x="173" y="225.5" />
            </Array>
          </mxGeometry>
        </mxCell>
        <mxCell id="4T01Y7rvJt7G6xIn6hby-245" value="&lt;font style=&quot;font-size: 8px;&quot;&gt;$$\text{RegBanks}$$&lt;/font&gt;" style="text;html=1;align=center;verticalAlign=middle;whiteSpace=wrap;rounded=0;" vertex="1" parent="1">
          <mxGeometry x="211.18999999999988" y="616.06" width="35.52" height="16.44" as="geometry" />
        </mxCell>
        <mxCell id="4T01Y7rvJt7G6xIn6hby-246" value="&lt;font style=&quot;font-size: 8px;&quot;&gt;$$\text{MaxTrees}$$&lt;/font&gt;" style="text;html=1;align=center;verticalAlign=middle;whiteSpace=wrap;rounded=0;" vertex="1" parent="1">
          <mxGeometry x="363.64999999999986" y="616.06" width="35.52" height="16.44" as="geometry" />
        </mxCell>
        <mxCell id="4T01Y7rvJt7G6xIn6hby-247" value="&lt;font style=&quot;font-size: 8px;&quot;&gt;$$\text{MaxSrc}$$&lt;/font&gt;" style="text;html=1;align=center;verticalAlign=middle;whiteSpace=wrap;rounded=0;rotation=90;" vertex="1" parent="1">
          <mxGeometry x="443.9999999999999" y="533.3299999999999" width="35.52" height="16.44" as="geometry" />
        </mxCell>
        <mxCell id="4T01Y7rvJt7G6xIn6hby-249" value="&lt;font style=&quot;font-size: 8px;&quot;&gt;$$\text{MrgnSrc}$$&lt;/font&gt;" style="text;html=1;align=center;verticalAlign=middle;whiteSpace=wrap;rounded=0;rotation=90;" vertex="1" parent="1">
          <mxGeometry x="98.84999999999991" y="526.74" width="35.52" height="16.44" as="geometry" />
        </mxCell>
        <mxCell id="4T01Y7rvJt7G6xIn6hby-250" value="&lt;font style=&quot;font-size: 8px;&quot;&gt;$$\text{OutSrc}$$&lt;/font&gt;" style="text;html=1;align=center;verticalAlign=middle;whiteSpace=wrap;rounded=0;rotation=90;" vertex="1" parent="1">
          <mxGeometry x="529.6499999999999" y="237.05999999999995" width="35.52" height="16.44" as="geometry" />
        </mxCell>
        <mxCell id="4T01Y7rvJt7G6xIn6hby-253" value="&lt;font style=&quot;font-size: 8px;&quot;&gt;$$\text{MTreeSrc}$$&lt;/font&gt;" style="text;html=1;align=center;verticalAlign=middle;whiteSpace=wrap;rounded=0;rotation=-90;" vertex="1" parent="1">
          <mxGeometry x="24.31999999999988" y="139.5599999999999" width="35.52" height="16.44" as="geometry" />
        </mxCell>
        <mxCell id="4T01Y7rvJt7G6xIn6hby-254" value="&lt;font style=&quot;font-size: 8px;&quot;&gt;$$\text{Cntr}$$&lt;/font&gt;" style="text;html=1;align=center;verticalAlign=middle;whiteSpace=wrap;rounded=0;rotation=0;" vertex="1" parent="1">
          <mxGeometry x="263.97999999999985" y="77.77999999999989" width="35.52" height="16.44" as="geometry" />
        </mxCell>
        <mxCell id="4T01Y7rvJt7G6xIn6hby-255" value="" style="triangle;whiteSpace=wrap;html=1;rotation=0;strokeColor=#006EAF;" vertex="1" parent="1">
          <mxGeometry x="51" y="77.78" width="7.95" height="15.57" as="geometry" />
        </mxCell>
        <mxCell id="4T01Y7rvJt7G6xIn6hby-256" value="" style="endArrow=block;html=1;rounded=0;endSize=1;endFill=1;" edge="1" parent="1">
          <mxGeometry width="50" height="50" relative="1" as="geometry">
            <mxPoint x="25" y="71" as="sourcePoint" />
            <mxPoint x="51" y="71" as="targetPoint" />
          </mxGeometry>
        </mxCell>
        <mxCell id="4T01Y7rvJt7G6xIn6hby-258" value="&lt;font style=&quot;font-size: 8px;&quot;&gt;$$\text{Start}$$&lt;/font&gt;" style="text;html=1;align=center;verticalAlign=middle;whiteSpace=wrap;rounded=0;rotation=0;" vertex="1" parent="1">
          <mxGeometry x="12.479999999999905" y="55.999999999999886" width="35.52" height="16.44" as="geometry" />
        </mxCell>
        <mxCell id="4T01Y7rvJt7G6xIn6hby-260" value="" style="endArrow=block;html=1;rounded=0;endSize=1;endFill=1;strokeWidth=2;" edge="1" parent="1">
          <mxGeometry width="50" height="50" relative="1" as="geometry">
            <mxPoint x="149.76923076923077" y="213.5" as="sourcePoint" />
            <mxPoint x="89" y="523.8846153846154" as="targetPoint" />
            <Array as="points">
              <mxPoint x="89" y="213.5" />
            </Array>
          </mxGeometry>
        </mxCell>
      </root>
    </mxGraphModel>
  </diagram>
</mxfile>
